<svg width="5000" height="5000" viewBox="0 0 5000 5000" fill="none" xmlns="http://www.w3.org/2000/svg">
<rect width="5000" height="5000" fill="black"/>
<path d="M3405.5 1753.31C3423.73 1795.46 3428.28 1838.19 3419.17 1881.48C3411.19 1924.77 3391.82 1962.37 3361.06 1994.27L2333.96 3019.66H3402.08V3464H1799.05C1753.48 3464 1711.89 3451.47 1674.29 3426.4C1637.84 3400.2 1610.49 3367.16 1592.26 3327.28C1575.17 3285.13 1570.62 3242.4 1578.59 3199.11C1587.71 3154.67 1608.78 3115.94 1641.82 3082.9L2663.8 2060.92H1595.68V1616.59H3202.13C3246.56 1616.59 3287.01 1628.55 3323.46 1652.48C3361.06 1676.4 3388.41 1710.01 3405.5 1753.31Z" fill="white"/>
</svg>
