<svg width="5000" height="5000" viewBox="0 0 5000 5000" fill="none" xmlns="http://www.w3.org/2000/svg">
<g clip-path="url(#clip0_2048_2)">
<path d="M3922.64 1365.77C3951.28 1432.01 3958.44 1499.15 3944.12 1567.18C3931.59 1635.22 3901.15 1694.3 3852.81 1744.43L2238.8 3355.76H3917.27V4054H1398.22C1326.61 4054 1261.26 4034.31 1202.18 3994.92C1144.89 3953.74 1101.92 3901.82 1073.27 3839.16C1046.42 3772.91 1039.25 3705.77 1051.79 3637.74C1066.11 3567.92 1099.23 3507.04 1151.15 3455.12L2757.11 1849.17H1078.64V1150.92H3603.06C3672.88 1150.92 3736.44 1169.72 3793.73 1207.32C3852.81 1244.92 3895.78 1297.73 3922.64 1365.77Z" fill="black"/>
</g>
<defs>
<clipPath id="clip0_2048_2">
<rect width="5000" height="5000" fill="white"/>
</clipPath>
</defs>
</svg>
