<svg width="5000" height="5000" viewBox="0 0 5000 5000" fill="none" xmlns="http://www.w3.org/2000/svg">
<g clip-path="url(#clip0_2048_2)">
<path d="M3793.85 1497.15C3819.89 1557.37 3826.4 1618.41 3813.38 1680.26C3801.99 1742.11 3774.32 1795.82 3730.38 1841.39L2263.09 3306.23H3788.97V3941H1498.93C1433.83 3941 1374.42 3923.1 1320.71 3887.29C1268.62 3849.85 1229.56 3802.65 1203.52 3745.69C1179.11 3685.47 1172.6 3624.43 1183.99 3562.58C1197.01 3499.11 1227.12 3443.77 1274.32 3396.57L2734.28 1936.61H1208.4V1301.84H3503.32C3566.8 1301.84 3624.58 1318.93 3676.66 1353.11C3730.38 1387.29 3769.44 1435.3 3793.85 1497.15Z" fill="black"/>
</g>
<defs>
<clipPath id="clip0_2048_2">
<rect width="5000" height="5000" fill="white"/>
</clipPath>
</defs>
</svg>
