<svg width="5000" height="5000" viewBox="0 0 5000 5000" fill="none" xmlns="http://www.w3.org/2000/svg">
<g clip-path="url(#clip0_2048_2)">
<path d="M3664.07 1517.54C3687.5 1571.74 3693.36 1626.67 3681.64 1682.33C3671.39 1738 3646.49 1786.34 3606.94 1827.35L2286.38 3145.71H3659.67V3717H1598.64C1540.04 3717 1486.58 3700.89 1438.24 3668.66C1391.36 3634.97 1356.21 3592.49 1332.77 3541.22C1310.79 3487.02 1304.94 3432.09 1315.19 3376.42C1326.91 3319.29 1354.01 3269.49 1396.49 3227.01L2710.45 1913.04H1337.16V1341.76H3402.59C3459.72 1341.76 3511.72 1357.14 3558.6 1387.9C3606.94 1418.66 3642.09 1461.87 3664.07 1517.54Z" fill="black"/>
</g>
<defs>
<clipPath id="clip0_2048_2">
<rect width="5000" height="5000" fill="white"/>
</clipPath>
</defs>
</svg>
