<svg width="3523" height="751" viewBox="0 0 3523 751" fill="none" xmlns="http://www.w3.org/2000/svg">
<path d="M639.648 88.8672C644.531 100.26 645.996 112.305 644.043 125C642.09 137.37 636.882 147.949 628.418 156.738L209.473 624.023H638.672V750.977H66.4062C54.0365 750.977 42.4805 747.559 31.7383 740.723C21.3216 733.561 13.5091 724.284 8.30078 712.891C2.76693 701.497 0.976562 689.616 2.92969 677.246C5.20833 664.876 10.4167 654.134 18.5547 645.02L438.477 177.734H8.30078V50.7812H581.543C593.913 50.7812 605.306 54.362 615.723 61.5234C626.465 68.3594 634.44 77.474 639.648 88.8672ZM1294.2 397.949C1294.2 415.527 1291.11 434.57 1284.92 455.078C1278.74 475.26 1268.65 494.141 1254.65 511.719C1240.98 528.971 1222.91 543.457 1200.45 555.176C1178.31 566.895 1151.3 572.754 1119.39 572.754H890.391V452.148H1119.39C1136.65 452.148 1149.99 446.94 1159.43 436.523C1168.87 425.781 1173.59 412.598 1173.59 396.973C1173.59 380.371 1168.22 367.35 1157.48 357.91C1147.06 348.47 1134.37 343.75 1119.39 343.75H890.391C873.138 343.75 859.792 349.121 850.352 359.863C840.911 370.28 836.191 383.301 836.191 398.926V576.172C836.191 593.099 841.4 606.283 851.816 615.723C862.559 625.163 875.742 629.883 891.367 629.883H1119.39V750.977H890.391C872.812 750.977 853.77 747.884 833.262 741.699C813.079 735.514 794.199 725.586 776.621 711.914C759.368 697.917 744.883 679.85 733.164 657.715C721.445 635.254 715.586 608.073 715.586 576.172V397.949C715.586 380.371 718.678 361.491 724.863 341.309C731.048 320.801 740.977 301.921 754.648 284.668C768.646 267.09 786.712 252.441 808.848 240.723C831.309 229.004 858.49 223.145 890.391 223.145H1119.39C1136.97 223.145 1155.85 226.237 1176.04 232.422C1196.54 238.607 1215.42 248.698 1232.68 262.695C1250.25 276.367 1264.9 294.434 1276.62 316.895C1288.34 339.03 1294.2 366.048 1294.2 397.949ZM1601.58 750.977H1544.94C1526.71 750.977 1507.18 747.884 1486.35 741.699C1465.84 735.514 1446.63 725.423 1428.73 711.426C1410.83 697.103 1396.02 678.711 1384.3 656.25C1372.58 633.464 1366.72 605.632 1366.72 572.754V0H1493.67V572.754C1493.67 588.379 1498.55 600.911 1508.32 610.352C1518.09 619.466 1530.29 624.023 1544.94 624.023H1601.58V750.977ZM2293.24 750.977H2110.14L1854.28 503.906C1839.95 490.885 1833.28 474.609 1834.26 455.078C1834.91 445.964 1837.19 437.5 1841.09 429.688C1845.33 421.549 1851.02 414.714 1858.18 409.18L2090.12 222.168H2293.24L1994.41 462.891L2293.24 750.977ZM1802.03 750.977H1675.08V0H1802.03V750.977ZM2905.8 397.949C2905.8 415.527 2902.71 434.57 2896.52 455.078C2890.34 475.26 2880.25 494.141 2866.25 511.719C2852.58 528.971 2834.51 543.457 2812.05 555.176C2789.92 566.895 2762.9 572.754 2731 572.754H2501.99V452.148H2731C2748.25 452.148 2761.6 446.94 2771.04 436.523C2780.48 425.781 2785.2 412.598 2785.2 396.973C2785.2 380.371 2779.82 367.35 2769.08 357.91C2758.67 348.47 2745.97 343.75 2731 343.75H2501.99C2484.74 343.75 2471.39 349.121 2461.95 359.863C2452.51 370.28 2447.79 383.301 2447.79 398.926V576.172C2447.79 593.099 2453 606.283 2463.42 615.723C2474.16 625.163 2487.34 629.883 2502.97 629.883H2731V750.977H2501.99C2484.41 750.977 2465.37 747.884 2444.86 741.699C2424.68 735.514 2405.8 725.586 2388.22 711.914C2370.97 697.917 2356.48 679.85 2344.77 657.715C2333.05 635.254 2327.19 608.073 2327.19 576.172V397.949C2327.19 380.371 2330.28 361.491 2336.46 341.309C2342.65 320.801 2352.58 301.921 2366.25 284.668C2380.25 267.09 2398.31 252.441 2420.45 240.723C2442.91 229.004 2470.09 223.145 2501.99 223.145H2731C2748.57 223.145 2767.45 226.237 2787.64 232.422C2808.14 238.607 2827.02 248.698 2844.28 262.695C2861.86 276.367 2876.5 294.434 2888.22 316.895C2899.94 339.03 2905.8 366.048 2905.8 397.949ZM3522.27 576.172C3522.27 593.75 3519.17 612.793 3512.99 633.301C3506.8 653.483 3496.71 672.363 3482.71 689.941C3469.04 707.194 3450.98 721.68 3428.52 733.398C3406.38 745.117 3379.36 750.977 3347.46 750.977H3118.46C3100.88 750.977 3081.84 747.884 3061.33 741.699C3041.15 735.514 3022.27 725.586 3004.69 711.914C2987.43 697.917 2972.95 679.85 2961.23 657.715C2949.51 635.254 2943.65 608.073 2943.65 576.172C2943.65 558.594 2946.74 539.551 2952.93 519.043C2959.11 498.535 2969.04 479.655 2982.71 462.402C2996.71 444.824 3014.78 430.176 3036.91 418.457C3059.38 406.738 3086.56 400.879 3118.46 400.879H3347.46V521.973H3118.46C3101.2 521.973 3087.86 527.344 3078.42 538.086C3068.98 548.503 3064.26 561.523 3064.26 577.148C3064.26 593.75 3069.63 606.771 3080.37 616.211C3091.44 625.326 3104.46 629.883 3119.43 629.883H3347.46C3364.71 629.883 3378.06 624.674 3387.5 614.258C3396.94 603.841 3401.66 590.82 3401.66 575.195V397.949C3401.66 381.348 3396.45 368.164 3386.04 358.398C3375.94 348.633 3363.09 343.75 3347.46 343.75H3068.65V223.145H3347.46C3365.04 223.145 3383.92 226.237 3404.1 232.422C3424.61 238.607 3443.49 248.698 3460.74 262.695C3478.32 276.367 3492.97 294.434 3504.69 316.895C3516.41 339.03 3522.27 366.048 3522.27 397.949V576.172Z" fill="white"/>
</svg>
