<svg width="3521" height="751" viewBox="0 0 3521 751" fill="none" xmlns="http://www.w3.org/2000/svg">
<path d="M639.648 88.8672C644.531 100.26 645.996 112.305 644.043 125C642.09 137.37 636.882 147.949 628.418 156.738L209.473 624.023H638.672V750.977H66.4062C54.0365 750.977 42.4805 747.559 31.7383 740.723C21.3216 733.561 13.5091 724.284 8.30078 712.891C2.76693 701.497 0.976562 689.616 2.92969 677.246C5.20833 664.876 10.4167 654.134 18.5547 645.02L438.477 177.734H8.30078V50.7812H581.543C593.913 50.7812 605.306 54.362 615.723 61.5234C626.465 68.3594 634.44 77.474 639.648 88.8672ZM1293.22 397.949C1293.22 415.527 1290.13 434.57 1283.95 455.078C1277.76 475.26 1267.67 494.141 1253.67 511.719C1240 528.971 1221.93 543.457 1199.47 555.176C1177.34 566.895 1150.32 572.754 1118.42 572.754H889.414V452.148H1118.42C1135.67 452.148 1149.02 446.94 1158.46 436.523C1167.9 425.781 1172.62 412.598 1172.62 396.973C1172.62 380.371 1167.25 367.35 1156.5 357.91C1146.09 348.47 1133.39 343.75 1118.42 343.75H889.414C872.161 343.75 858.815 349.121 849.375 359.863C839.935 370.28 835.215 383.301 835.215 398.926V576.172C835.215 593.099 840.423 606.283 850.84 615.723C861.582 625.163 874.766 629.883 890.391 629.883H1118.42V750.977H889.414C871.836 750.977 852.793 747.884 832.285 741.699C812.103 735.514 793.223 725.586 775.645 711.914C758.392 697.917 743.906 679.85 732.188 657.715C720.469 635.254 714.609 608.073 714.609 576.172V397.949C714.609 380.371 717.702 361.491 723.887 341.309C730.072 320.801 740 301.921 753.672 284.668C767.669 267.09 785.736 252.441 807.871 240.723C830.332 229.004 857.513 223.145 889.414 223.145H1118.42C1136 223.145 1154.88 226.237 1175.06 232.422C1195.57 238.607 1214.45 248.698 1231.7 262.695C1249.28 276.367 1263.93 294.434 1275.64 316.895C1287.36 339.03 1293.22 366.048 1293.22 397.949ZM1600.61 750.977H1543.96C1525.74 750.977 1506.2 747.884 1485.37 741.699C1464.86 735.514 1445.66 725.423 1427.75 711.426C1409.85 697.103 1395.04 678.711 1383.32 656.25C1371.6 633.464 1365.74 605.632 1365.74 572.754V0H1492.7V572.754C1492.7 588.379 1497.58 600.911 1507.34 610.352C1517.11 619.466 1529.32 624.023 1543.96 624.023H1600.61V750.977ZM2292.27 750.977H2109.16L1853.3 503.906C1838.98 490.885 1832.3 474.609 1833.28 455.078C1833.93 445.964 1836.21 437.5 1840.12 429.688C1844.35 421.549 1850.05 414.714 1857.21 409.18L2089.14 222.168H2292.27L1993.44 462.891L2292.27 750.977ZM1801.05 750.977H1674.1V0H1801.05V750.977ZM2903.85 397.949C2903.85 415.527 2900.76 434.57 2894.57 455.078C2888.39 475.26 2878.29 494.141 2864.3 511.719C2850.62 528.971 2832.56 543.457 2810.1 555.176C2787.96 566.895 2760.94 572.754 2729.04 572.754H2500.04V452.148H2729.04C2746.3 452.148 2759.64 446.94 2769.08 436.523C2778.52 425.781 2783.24 412.598 2783.24 396.973C2783.24 380.371 2777.87 367.35 2767.13 357.91C2756.71 348.47 2744.02 343.75 2729.04 343.75H2500.04C2482.79 343.75 2469.44 349.121 2460 359.863C2450.56 370.28 2445.84 383.301 2445.84 398.926V576.172C2445.84 593.099 2451.05 606.283 2461.46 615.723C2472.21 625.163 2485.39 629.883 2501.02 629.883H2729.04V750.977H2500.04C2482.46 750.977 2463.42 747.884 2442.91 741.699C2422.73 735.514 2403.85 725.586 2386.27 711.914C2369.02 697.917 2354.53 679.85 2342.81 657.715C2331.09 635.254 2325.23 608.073 2325.23 576.172V397.949C2325.23 380.371 2328.33 361.491 2334.51 341.309C2340.7 320.801 2350.62 301.921 2364.3 284.668C2378.29 267.09 2396.36 252.441 2418.5 240.723C2440.96 229.004 2468.14 223.145 2500.04 223.145H2729.04C2746.62 223.145 2765.5 226.237 2785.68 232.422C2806.19 238.607 2825.07 248.698 2842.32 262.695C2859.9 276.367 2874.55 294.434 2886.27 316.895C2897.99 339.03 2903.85 366.048 2903.85 397.949ZM3520.31 576.172C3520.31 593.75 3517.22 612.793 3511.04 633.301C3504.85 653.483 3494.76 672.363 3480.76 689.941C3467.09 707.194 3449.02 721.68 3426.56 733.398C3404.43 745.117 3377.41 750.977 3345.51 750.977H3116.5C3098.93 750.977 3079.88 747.884 3059.38 741.699C3039.19 735.514 3020.31 725.586 3002.73 711.914C2985.48 697.917 2971 679.85 2959.28 657.715C2947.56 635.254 2941.7 608.073 2941.7 576.172C2941.7 558.594 2944.79 539.551 2950.98 519.043C2957.16 498.535 2967.09 479.655 2980.76 462.402C2994.76 444.824 3012.83 430.176 3034.96 418.457C3057.42 406.738 3084.6 400.879 3116.5 400.879H3345.51V521.973H3116.5C3099.25 521.973 3085.9 527.344 3076.46 538.086C3067.02 548.503 3062.3 561.523 3062.3 577.148C3062.3 593.75 3067.68 606.771 3078.42 616.211C3089.49 625.326 3102.51 629.883 3117.48 629.883H3345.51C3362.76 629.883 3376.11 624.674 3385.55 614.258C3394.99 603.841 3399.71 590.82 3399.71 575.195V397.949C3399.71 381.348 3394.5 368.164 3384.08 358.398C3373.99 348.633 3361.13 343.75 3345.51 343.75H3066.7V223.145H3345.51C3363.09 223.145 3381.97 226.237 3402.15 232.422C3422.66 238.607 3441.54 248.698 3458.79 262.695C3476.37 276.367 3491.02 294.434 3502.73 316.895C3514.45 339.03 3520.31 366.048 3520.31 397.949V576.172Z" fill="black"/>
</svg>
